<svg width="25" height="25" viewBox="0 0 25 25" fill="none" xmlns="http://www.w3.org/2000/svg">
<path d="M1.32812 1.92188L2.03523 1.21477L2.02383 1.20337L2.01207 1.19234L1.32812 1.92188ZM10 10.5938H11V10.1795L10.7071 9.88664L10 10.5938ZM10.4688 21.1875L11.0422 20.3683L11.0047 20.342L10.9649 20.3193L10.4688 21.1875ZM14.2188 23.8125L13.6453 24.6318L13.6522 24.6365L14.2188 23.8125ZM16 10.5938L15.291 9.88856L15 10.1811V10.5938H16ZM24.625 1.92188L23.9411 1.19234L23.9283 1.20429L23.916 1.21669L24.625 1.92188ZM23.8281 -1H2.125V1H23.8281V-1ZM2.125 -1C0.257361 -1 -0.817956 1.28066 0.644184 2.65141L2.01207 1.19234C1.97696 1.15942 1.97397 1.14003 1.97319 1.13598C1.97131 1.12617 1.97101 1.10739 1.98126 1.08286C1.99157 1.05819 2.00848 1.03788 2.02762 1.02468C2.04269 1.01429 2.07038 1 2.125 1V-1ZM0.621018 2.62898L9.29289 11.3009L10.7071 9.88664L2.03523 1.21477L0.621018 2.62898ZM9 10.5938V20.25H11V10.5938H9ZM9 20.25C9 20.8325 9.22065 21.626 9.97261 22.0557L10.9649 20.3193C10.9823 20.3292 10.9971 20.3419 11.0076 20.3538C11.0175 20.3651 11.0199 20.3714 11.0183 20.368C11.0166 20.3642 11.0117 20.3522 11.0074 20.3307C11.003 20.3092 11 20.2819 11 20.25H9ZM9.89529 22.0067L13.6453 24.6317L14.7922 22.9933L11.0422 20.3683L9.89529 22.0067ZM13.6522 24.6365C15.0483 25.5964 17 24.6387 17 22.875H15C15 22.921 14.9888 22.9442 14.981 22.9566C14.9712 22.9721 14.9551 22.9881 14.9316 23.0002C14.9079 23.0125 14.8827 23.0175 14.8605 23.0165C14.8415 23.0156 14.8169 23.0102 14.7853 22.9885L13.6522 24.6365ZM17 22.875V10.5938H15V22.875H17ZM16.709 11.2989L25.334 2.62706L23.916 1.21669L15.291 9.88856L16.709 11.2989ZM25.3089 2.65141C26.7711 1.28066 25.6958 -1 23.8281 -1V1C23.8827 1 23.9104 1.01429 23.9255 1.02468C23.9446 1.03788 23.9616 1.05819 23.9719 1.08286C23.9821 1.10739 23.9818 1.12617 23.9799 1.13598C23.9792 1.14003 23.9762 1.15942 23.9411 1.19234L25.3089 2.65141Z" fill="#3D3D3D"/>
</svg>
