<svg width="22" height="32" viewBox="0 0 22 32" fill="none" xmlns="http://www.w3.org/2000/svg">
<path d="M1 8.23389C0.723858 8.23389 0.5 8.45774 0.5 8.73389V28.0021C0.5 29.3828 1.61929 30.5021 3 30.5021H19C20.3807 30.5021 21.5 29.3828 21.5 28.0021V8.73389C21.5 8.45774 21.2761 8.23389 21 8.23389H1Z" stroke="white" stroke-linejoin="round"/>
<path fill-rule="evenodd" clip-rule="evenodd" d="M17.0001 11.6341H16.0001V6C16.0001 3.23858 13.7615 1 11.0001 1C8.2387 1 6.00012 3.23858 6.00012 6V11.6341H5.00012V6C5.00012 2.68629 7.68641 0 11.0001 0C14.3138 0 17.0001 2.68629 17.0001 6V11.6341Z" fill="white"/>
</svg>
