<svg width="171" height="18" viewBox="0 0 171 18" fill="none" xmlns="http://www.w3.org/2000/svg">
<path d="M13.16 8.58092H15.464V15.1329C14.632 15.8209 13.664 16.3489 12.56 16.7169C11.456 17.0849 10.304 17.2689 9.104 17.2689C7.408 17.2689 5.88 16.9009 4.52 16.1649C3.16 15.4129 2.088 14.3889 1.304 13.0929C0.536 11.7809 0.152 10.3089 0.152 8.67692C0.152 7.04492 0.536 5.57292 1.304 4.26092C2.088 2.94892 3.16 1.92492 4.52 1.18892C5.896 0.452919 7.44 0.0849195 9.152 0.0849195C10.496 0.0849195 11.712 0.308919 12.8 0.756919C13.904 1.18892 14.84 1.82892 15.608 2.67692L14.12 4.16492C12.776 2.86892 11.152 2.22092 9.248 2.22092C7.968 2.22092 6.816 2.50092 5.792 3.06092C4.784 3.60492 3.992 4.37292 3.416 5.36492C2.84 6.34092 2.552 7.44492 2.552 8.67692C2.552 9.89292 2.84 10.9969 3.416 11.9889C3.992 12.9649 4.784 13.7329 5.792 14.2929C6.816 14.8529 7.96 15.1329 9.224 15.1329C10.728 15.1329 12.04 14.7729 13.16 14.0529V8.58092ZM27.0191 17.2689C24.7791 17.2689 23.0351 16.6289 21.7871 15.3489C20.5391 14.0689 19.9151 12.2289 19.9151 9.82892V0.276918H22.3151V9.73292C22.3151 13.3329 23.8911 15.1329 27.0431 15.1329C28.5791 15.1329 29.7551 14.6929 30.5711 13.8129C31.3871 12.9169 31.7951 11.5569 31.7951 9.73292V0.276918H34.1231V9.82892C34.1231 12.2449 33.4991 14.0929 32.2511 15.3729C31.0031 16.6369 29.2591 17.2689 27.0191 17.2689ZM54.6194 17.0769L54.5954 4.83692L48.5234 15.0369H47.4194L41.3474 4.90892V17.0769H39.0434V0.276918H41.0114L48.0194 12.0849L54.9314 0.276918H56.8994L56.9234 17.0769H54.6194ZM77.5413 17.0769L77.5173 4.83692L71.4453 15.0369H70.3413L64.2693 4.90892V17.0769H61.9653V0.276918H63.9333L70.9413 12.0849L77.8533 0.276918H79.8213L79.8453 17.0769H77.5413ZM84.8872 0.276918H87.2872V17.0769H84.8872V0.276918ZM92.5329 17.2209C92.0849 17.2209 91.7009 17.0689 91.3809 16.7649C91.0609 16.4449 90.9009 16.0449 90.9009 15.5649C90.9009 15.1009 91.0609 14.7169 91.3809 14.4129C91.7009 14.0929 92.0849 13.9329 92.5329 13.9329C92.9809 13.9329 93.3569 14.0849 93.6609 14.3889C93.9649 14.6929 94.1169 15.0849 94.1169 15.5649C94.1169 16.0449 93.9569 16.4449 93.6369 16.7649C93.3329 17.0689 92.9649 17.2209 92.5329 17.2209ZM104.306 0.276918C106.482 0.276918 108.194 0.796918 109.442 1.83692C110.69 2.87692 111.314 4.30892 111.314 6.13292C111.314 7.95692 110.69 9.38892 109.442 10.4289C108.194 11.4689 106.482 11.9889 104.306 11.9889H100.154V17.0769H97.7544V0.276918H104.306ZM104.234 9.90092C105.754 9.90092 106.914 9.58092 107.714 8.94092C108.514 8.28492 108.914 7.34892 108.914 6.13292C108.914 4.91692 108.514 3.98892 107.714 3.34892C106.914 2.69292 105.754 2.36492 104.234 2.36492H100.154V9.90092H104.234ZM126.072 17.0769L122.448 11.9169C122 11.9489 121.648 11.9649 121.392 11.9649H117.24V17.0769H114.84V0.276918H121.392C123.568 0.276918 125.28 0.796918 126.528 1.83692C127.776 2.87692 128.4 4.30892 128.4 6.13292C128.4 7.42892 128.08 8.53292 127.44 9.44492C126.8 10.3569 125.888 11.0209 124.704 11.4369L128.688 17.0769H126.072ZM121.32 9.92492C122.84 9.92492 124 9.59692 124.8 8.94092C125.6 8.28492 126 7.34892 126 6.13292C126 4.91692 125.6 3.98892 124.8 3.34892C124 2.69292 122.84 2.36492 121.32 2.36492H117.24V9.92492H121.32ZM132.278 0.276918H134.678V17.0769H132.278V0.276918ZM154.156 0.276918V17.0769H152.188L142.108 4.54892V17.0769H139.708V0.276918H141.676L151.756 12.8049V0.276918H154.156ZM162.52 2.36492H156.76V0.276918H170.656V2.36492H164.896V17.0769H162.52V2.36492Z" fill="white"/>
</svg>
