<svg width="15" height="16" viewBox="0 0 15 16" fill="none" xmlns="http://www.w3.org/2000/svg">
<path d="M13.2812 0.6875H1.59375C0.697266 0.6875 0 1.41797 0 2.28125V13.9688C0 14.8652 0.697266 15.5625 1.59375 15.5625H6.14258V10.5156H4.05078V8.125H6.14258V6.33203C6.14258 4.27344 7.37109 3.11133 9.23047 3.11133C10.1602 3.11133 11.0898 3.27734 11.0898 3.27734V5.30273H10.0605C9.03125 5.30273 8.69922 5.93359 8.69922 6.59766V8.125H10.9902L10.625 10.5156H8.69922V15.5625H13.2812C14.1445 15.5625 14.875 14.8652 14.875 13.9688V2.28125C14.875 1.41797 14.1445 0.6875 13.2812 0.6875Z" fill="white"/>
</svg>
