<svg width="16" height="16" viewBox="0 0 16 16" fill="none" xmlns="http://www.w3.org/2000/svg">
<path d="M8.4375 4.30664C6.3125 4.30664 4.61914 6.0332 4.61914 8.125C4.61914 10.25 6.3125 11.9434 8.4375 11.9434C10.5293 11.9434 12.2559 10.25 12.2559 8.125C12.2559 6.0332 10.5293 4.30664 8.4375 4.30664ZM8.4375 10.6152C7.07617 10.6152 5.94727 9.51953 5.94727 8.125C5.94727 6.76367 7.04297 5.66797 8.4375 5.66797C9.79883 5.66797 10.8945 6.76367 10.8945 8.125C10.8945 9.51953 9.79883 10.6152 8.4375 10.6152ZM13.2852 4.17383C13.2852 3.67578 12.8867 3.27734 12.3887 3.27734C11.8906 3.27734 11.4922 3.67578 11.4922 4.17383C11.4922 4.67188 11.8906 5.07031 12.3887 5.07031C12.8867 5.07031 13.2852 4.67188 13.2852 4.17383ZM15.8086 5.07031C15.7422 3.875 15.4766 2.8125 14.6133 1.94922C13.75 1.08594 12.6875 0.820312 11.4922 0.753906C10.2637 0.6875 6.57812 0.6875 5.34961 0.753906C4.1543 0.820312 3.125 1.08594 2.22852 1.94922C1.36523 2.8125 1.09961 3.875 1.0332 5.07031C0.966797 6.29883 0.966797 9.98438 1.0332 11.2129C1.09961 12.4082 1.36523 13.4375 2.22852 14.334C3.125 15.1973 4.1543 15.4629 5.34961 15.5293C6.57812 15.5957 10.2637 15.5957 11.4922 15.5293C12.6875 15.4629 13.75 15.1973 14.6133 14.334C15.4766 13.4375 15.7422 12.4082 15.8086 11.2129C15.875 9.98438 15.875 6.29883 15.8086 5.07031ZM14.2148 12.5078C13.9824 13.1719 13.4512 13.6699 12.8203 13.9355C11.8242 14.334 9.5 14.2344 8.4375 14.2344C7.3418 14.2344 5.01758 14.334 4.05469 13.9355C3.39062 13.6699 2.89258 13.1719 2.62695 12.5078C2.22852 11.5449 2.32812 9.2207 2.32812 8.125C2.32812 7.0625 2.22852 4.73828 2.62695 3.74219C2.89258 3.11133 3.39062 2.61328 4.05469 2.34766C5.01758 1.94922 7.3418 2.04883 8.4375 2.04883C9.5 2.04883 11.8242 1.94922 12.8203 2.34766C13.4512 2.58008 13.9492 3.11133 14.2148 3.74219C14.6133 4.73828 14.5137 7.0625 14.5137 8.125C14.5137 9.2207 14.6133 11.5449 14.2148 12.5078Z" fill="white"/>
</svg>
