<svg width="17" height="18" viewBox="0 0 17 18" fill="none" xmlns="http://www.w3.org/2000/svg">
<path d="M14.7422 2.28516C14.3105 1.91992 12.584 0.658203 8.79883 0.658203C8.79883 0.658203 4.31641 0.392578 2.125 2.38477C0.896484 3.61328 0.464844 5.37305 0.431641 7.59766C0.398438 9.78906 0.332031 13.9395 4.31641 15.0684V16.7617C4.31641 16.7617 4.2832 17.459 4.74805 17.625C5.3125 17.791 5.61133 17.2598 6.14258 16.6953C6.44141 16.3633 6.83984 15.9316 7.13867 15.5664C9.86133 15.7988 11.9531 15.2676 12.2188 15.2012C12.75 15.002 15.8711 14.6035 16.3691 10.4863C16.9004 6.20312 16.1367 3.51367 14.7422 2.28516ZM15.1738 10.1543C14.7754 13.6074 12.2188 13.8398 11.7539 14.0059C11.5547 14.0391 9.72852 14.5039 7.4043 14.3711C7.4043 14.3711 5.67773 16.4297 5.14648 16.9941C4.98047 17.1602 4.78125 17.1602 4.78125 16.7949C4.78125 16.5625 4.78125 13.9395 4.78125 13.9395C1.42773 13.0098 1.62695 9.49023 1.66016 7.66406C1.69336 5.80469 2.02539 4.31055 3.05469 3.28125C4.91406 1.58789 8.73242 1.85352 8.73242 1.85352C11.9531 1.85352 13.4805 2.84961 13.8457 3.14844C15.041 4.17773 15.6387 6.60156 15.1738 10.1543ZM10.5586 7.49805C10.5254 6.53516 10.0273 6.00391 9.09766 5.9375C8.79883 5.9375 8.76562 6.36914 9.06445 6.36914C9.76172 6.43555 10.0938 6.76758 10.1602 7.49805C10.1602 7.79688 10.5918 7.76367 10.5586 7.49805ZM11.2559 7.86328C11.2559 8.12891 11.6875 8.16211 11.6875 7.86328C11.7207 6.26953 10.6914 4.94141 8.76562 4.80859C8.4668 4.77539 8.43359 5.20703 8.73242 5.24023C10.3926 5.33984 11.2891 6.46875 11.2559 7.86328ZM12.8164 8.29492C12.7832 5.40625 10.8242 3.71289 8.36719 3.67969C8.10156 3.67969 8.10156 4.11133 8.36719 4.11133C10.5586 4.14453 12.3516 5.60547 12.3848 8.29492C12.3848 8.59375 12.8164 8.59375 12.8164 8.29492ZM12.418 11.5488C12.584 11.25 12.5508 10.9844 12.3184 10.7852C11.8867 10.3867 11.2891 9.95508 10.791 9.68945C10.4258 9.49023 10.0605 9.62305 9.89453 9.82227L9.5957 10.2207C9.42969 10.4199 9.13086 10.3867 9.13086 10.3867C6.90625 9.82227 6.30859 7.59766 6.30859 7.59766C6.30859 7.59766 6.30859 7.29883 6.50781 7.13281L6.90625 6.80078C7.10547 6.63477 7.20508 6.26953 7.00586 5.9043C6.90625 5.70508 6.67383 5.33984 6.50781 5.14062C6.3418 4.875 5.91016 4.41016 5.91016 4.41016C5.74414 4.14453 5.44531 4.11133 5.14648 4.27734H5.11328C4.48242 4.60938 3.78516 5.30664 4.01758 5.9707C4.01758 5.9707 4.18359 6.56836 4.88086 7.83008C5.21289 8.46094 5.57812 8.95898 5.91016 9.39062C6.27539 9.85547 6.77344 10.3535 7.30469 10.7852C8.36719 11.6152 9.99414 12.4785 10.6914 12.6777H10.7246C11.3887 12.9102 12.0859 12.2129 12.418 11.582V11.5488Z" fill="white"/>
</svg>
